<svg t="1751713884689" class="icon" viewBox="0 0 1024 1024" version="1.1" xmlns="http://www.w3.org/2000/svg" p-id="9383" width="128" height="128"><path d="M403.950933 634.88H257.706667A137.659733 137.659733 0 0 1 119.466667 496.64a140.8 140.8 0 0 1 92.16-132.096 185.856 185.856 0 0 1 277.794133-134.3488 215.04 215.04 0 0 1 304.759467 120.541867 30.72 30.72 0 1 1-58.368 19.6608 153.685333 153.685333 0 0 0-194.423467-95.761067A177.015467 177.015467 0 0 1 571.050667 327.68a152.32 152.32 0 0 1 129.143466 122.88H805.546667a30.72 30.72 0 0 0 30.72-30.72 30.72 30.72 0 0 1 61.44 0 92.16 92.16 0 0 1-92.16 92.16h-105.506134a152.234667 152.234667 0 0 1-27.938133 61.44H805.546667a92.16 92.16 0 1 1 0 184.32 30.72 30.72 0 1 1 0-61.44 30.72 30.72 0 0 0 0-61.44H590.506667a30.3616 30.3616 0 0 1-11.707734-2.321067q-6.826667 1.467733-13.892266 2.304h-160.955734z" fill="#1296db" p-id="9384" class="selected"></path><path d="M375.466667 727.057067m-30.72 0a30.72 30.72 0 1 0 61.44 0 30.72 30.72 0 1 0-61.44 0Z" fill="#1296db" p-id="9385" class="selected"></path><path d="M498.346667 696.32h153.6a92.16 92.16 0 0 1 92.16 92.16 30.72 30.72 0 0 1-61.44 0 30.72 30.72 0 0 0-30.72-30.72h-153.6a30.72 30.72 0 1 1 0-61.44z" fill="#1296db" p-id="9386" class="selected"></path><path d="M303.786667 343.04h143.36a25.6 25.6 0 0 1 0 51.2h-143.36a25.6 25.6 0 0 1 0-51.2zM303.786667 445.44h245.76a25.6 25.6 0 0 1 0 51.2H303.786667a25.6 25.6 0 0 1 0-51.2z" fill="#FFFFFF" p-id="9387"></path></svg>